# xmcd
#
# Track frame offsets:
#	150
#	12175
#	32571
#	48948
#	68866
#	93468
#	118858
#	139743
#	158865
#	176095
#	204418
#	225814
#	257628
#	283931
#
# Disc length: 4225 seconds
# Revision: 0
# Processed by: cddbd v1.5.2PL0 Copyright (c) Steve Scherf et al.
# Submitted via: dBpowerAMP V12.0
#
DISCID=bc107f0e
DTITLE=The Blues Band - Live At Rockplast
DYEAR=2013
DGENRE=Blues
TTITLE0=Come On In
TTITLE1=Talk To Me
TTITLE2=Death Letter
TTITLE3=Going Home
TTITLE4=Can't Hold On Much Longer
TTITLE5=Flatfoot Sam
TTITLE6=Someday Baby
TTITLE7=Boom, Boom, Out Go The Lights
TTITLE8=Nadine
TTITLE9=Maggie's Farm
TTITLE10=I Don't Know
TTITLE11=Treat Her Right
TTITLE12=Hoochie Coochie Man
TTITLE13=Flip, Flop And Fly
EXTD=
EXTT0=
EXTT1=
EXTT2=
EXTT3=
EXTT4=
EXTT5=
EXTT6=
EXTT7=
EXTT8=
EXTT9=
EXTT10=
EXTT11=
EXTT12=
EXTT13=
PLAYORDER=
